<mxfile host="65bd71144e" modified="2020-11-02T19:20:16.729Z" agent="5.0 (Macintosh; Intel Mac OS X 10_15_7) AppleWebKit/537.36 (KHTML, like Gecko) Code/1.50.1 Chrome/83.0.4103.122 Electron/9.2.1 Safari/537.36" version="13.6.5" etag="0cvdWs5M7dkWUx0E7d_Q">
    <diagram id="EafCfjscLrXSABuNNEOU" name="Page-1">
        <mxGraphModel dx="1667" dy="2340" grid="1" gridSize="10" guides="1" tooltips="1" connect="1" arrows="1" fold="1" page="1" pageScale="1" pageWidth="1920" pageHeight="1200" math="0" shadow="0">
            <root>
                <mxCell id="0"/>
                <mxCell id="1" parent="0"/>
                <mxCell id="66" value="" style="icon;html=1;labelBackgroundColor=none;labelPosition=center;verticalLabelPosition=bottom;align=center;verticalAlign=top;strokeColor=#000000;fillColor=#FFFFFF;fontColor=#FFFFFF;" vertex="1" parent="1">
                    <mxGeometry y="-1" width="240" height="450" as="geometry"/>
                </mxCell>
                <mxCell id="67" value="Profile&lt;br&gt;Service" style="html=1;dashed=0;whitespace=wrap;strokeColor=#000000;fillColor=#FFFFFF;fontColor=#000000;" vertex="1" parent="1">
                    <mxGeometry x="320" y="578" width="120" height="50" as="geometry"/>
                </mxCell>
                <mxCell id="68" value="Menu&lt;br&gt;Service" style="html=1;dashed=0;whitespace=wrap;strokeColor=#000000;fillColor=#FFFFFF;fontColor=#000000;" vertex="1" parent="1">
                    <mxGeometry x="520" y="578" width="120" height="50" as="geometry"/>
                </mxCell>
                <mxCell id="69" value="" style="aspect=fixed;perimeter=ellipsePerimeter;html=1;align=center;shadow=0;dashed=0;spacingTop=3;image;image=img/lib/active_directory/database.svg;strokeColor=#000000;fillColor=#FFFFFF;fontColor=#000000;" vertex="1" parent="1">
                    <mxGeometry x="410" y="608" width="27.03" height="20" as="geometry"/>
                </mxCell>
                <mxCell id="70" value="" style="aspect=fixed;perimeter=ellipsePerimeter;html=1;align=center;shadow=0;dashed=0;spacingTop=3;image;image=img/lib/active_directory/database.svg;strokeColor=#000000;fillColor=#FFFFFF;fontColor=#000000;" vertex="1" parent="1">
                    <mxGeometry x="610" y="608" width="27.03" height="20" as="geometry"/>
                </mxCell>
                <mxCell id="71" value="Feedback&lt;br&gt;Service" style="html=1;dashed=0;whitespace=wrap;strokeColor=#000000;fillColor=#FFFFFF;fontColor=#000000;" vertex="1" parent="1">
                    <mxGeometry x="720" y="578" width="120" height="50" as="geometry"/>
                </mxCell>
                <mxCell id="72" value="" style="aspect=fixed;perimeter=ellipsePerimeter;html=1;align=center;shadow=0;dashed=0;spacingTop=3;image;image=img/lib/active_directory/database.svg;strokeColor=#000000;fillColor=#FFFFFF;fontColor=#000000;" vertex="1" parent="1">
                    <mxGeometry x="810" y="608" width="27.03" height="20" as="geometry"/>
                </mxCell>
                <mxCell id="73" value="Campaign&lt;br&gt;Service" style="html=1;dashed=0;whitespace=wrap;strokeColor=#000000;fillColor=#FFFFFF;fontColor=#000000;" vertex="1" parent="1">
                    <mxGeometry x="920" y="578" width="120" height="50" as="geometry"/>
                </mxCell>
                <mxCell id="74" value="" style="aspect=fixed;perimeter=ellipsePerimeter;html=1;align=center;shadow=0;dashed=0;spacingTop=3;image;image=img/lib/active_directory/database.svg;strokeColor=#000000;fillColor=#FFFFFF;fontColor=#000000;" vertex="1" parent="1">
                    <mxGeometry x="1010" y="608" width="27.03" height="20" as="geometry"/>
                </mxCell>
                <mxCell id="75" style="edgeStyle=orthogonalEdgeStyle;rounded=1;orthogonalLoop=1;jettySize=auto;html=1;entryX=0.875;entryY=0.04;entryDx=0;entryDy=0;entryPerimeter=0;startArrow=none;startFill=0;endArrow=classic;endFill=1;fontColor=#000000;strokeColor=#1BA1E2;" edge="1" parent="1" source="77" target="93">
                    <mxGeometry relative="1" as="geometry"/>
                </mxCell>
                <mxCell id="76" style="edgeStyle=orthogonalEdgeStyle;rounded=1;orthogonalLoop=1;jettySize=auto;html=1;exitX=0.75;exitY=0;exitDx=0;exitDy=0;entryX=0.25;entryY=0;entryDx=0;entryDy=0;startArrow=none;startFill=0;endArrow=classic;endFill=1;fontColor=#000000;strokeColor=#FFFFFF;dashed=1;" edge="1" parent="1" source="77" target="119">
                    <mxGeometry relative="1" as="geometry">
                        <Array as="points">
                            <mxPoint x="1210" y="508"/>
                            <mxPoint x="1330" y="508"/>
                        </Array>
                    </mxGeometry>
                </mxCell>
                <mxCell id="77" value="Order&lt;br&gt;Service" style="html=1;dashed=0;whitespace=wrap;strokeColor=#000000;fillColor=#FFFFFF;fontColor=#000000;" vertex="1" parent="1">
                    <mxGeometry x="1120" y="578" width="120" height="50" as="geometry"/>
                </mxCell>
                <mxCell id="78" value="" style="aspect=fixed;perimeter=ellipsePerimeter;html=1;align=center;shadow=0;dashed=0;spacingTop=3;image;image=img/lib/active_directory/database.svg;strokeColor=#000000;fillColor=#FFFFFF;fontColor=#000000;" vertex="1" parent="1">
                    <mxGeometry x="1210" y="608" width="27.03" height="20" as="geometry"/>
                </mxCell>
                <mxCell id="79" style="edgeStyle=orthogonalEdgeStyle;orthogonalLoop=1;jettySize=auto;html=1;entryX=0.5;entryY=0;entryDx=0;entryDy=0;startArrow=none;startFill=0;endArrow=classic;endFill=1;fontColor=#000000;rounded=1;strokeColor=#D5E8D4;" edge="1" parent="1" source="83" target="67">
                    <mxGeometry relative="1" as="geometry">
                        <Array as="points">
                            <mxPoint x="470" y="503"/>
                            <mxPoint x="380" y="503"/>
                        </Array>
                    </mxGeometry>
                </mxCell>
                <mxCell id="80" style="edgeStyle=orthogonalEdgeStyle;rounded=1;orthogonalLoop=1;jettySize=auto;html=1;exitX=0.5;exitY=1;exitDx=0;exitDy=0;entryX=0.5;entryY=0;entryDx=0;entryDy=0;startArrow=none;startFill=0;endArrow=classic;endFill=1;fontColor=#000000;strokeColor=#D5E8D4;" edge="1" parent="1" source="83" target="68">
                    <mxGeometry relative="1" as="geometry">
                        <Array as="points">
                            <mxPoint x="510" y="528"/>
                            <mxPoint x="580" y="528"/>
                        </Array>
                    </mxGeometry>
                </mxCell>
                <mxCell id="81" style="edgeStyle=orthogonalEdgeStyle;rounded=1;orthogonalLoop=1;jettySize=auto;html=1;entryX=0.342;entryY=0.02;entryDx=0;entryDy=0;entryPerimeter=0;startArrow=none;startFill=0;endArrow=classic;endFill=1;fontColor=#000000;strokeColor=#D5E8D4;" edge="1" parent="1" source="83" target="71">
                    <mxGeometry relative="1" as="geometry"/>
                </mxCell>
                <mxCell id="82" style="edgeStyle=orthogonalEdgeStyle;rounded=1;orthogonalLoop=1;jettySize=auto;html=1;exitX=0.75;exitY=1;exitDx=0;exitDy=0;entryX=0.25;entryY=0;entryDx=0;entryDy=0;startArrow=none;startFill=0;endArrow=classic;endFill=1;fontColor=#000000;strokeColor=#D5E8D4;" edge="1" parent="1" source="83" target="73">
                    <mxGeometry relative="1" as="geometry">
                        <Array as="points">
                            <mxPoint x="550" y="503"/>
                            <mxPoint x="950" y="503"/>
                        </Array>
                    </mxGeometry>
                </mxCell>
                <mxCell id="83" value="Customer&lt;br&gt;App" style="html=1;dashed=0;whitespace=wrap;strokeColor=#82b366;fillColor=#d5e8d4;gradientColor=#97d077;fontColor=#000000;" vertex="1" parent="1">
                    <mxGeometry x="430" y="378" width="160" height="50" as="geometry"/>
                </mxCell>
                <mxCell id="84" style="edgeStyle=orthogonalEdgeStyle;rounded=1;orthogonalLoop=1;jettySize=auto;html=1;entryX=0.5;entryY=1;entryDx=0;entryDy=0;startArrow=none;startFill=0;endArrow=classic;endFill=1;fontColor=#000000;strokeColor=#F8CECC;" edge="1" parent="1" source="88" target="67">
                    <mxGeometry relative="1" as="geometry">
                        <Array as="points">
                            <mxPoint x="380" y="843"/>
                        </Array>
                    </mxGeometry>
                </mxCell>
                <mxCell id="85" style="edgeStyle=orthogonalEdgeStyle;rounded=1;orthogonalLoop=1;jettySize=auto;html=1;exitX=0.25;exitY=0;exitDx=0;exitDy=0;entryX=0;entryY=0.5;entryDx=0;entryDy=0;startArrow=none;startFill=0;endArrow=classic;endFill=1;fontColor=#000000;strokeColor=#F8CECC;" edge="1" parent="1" source="88" target="68">
                    <mxGeometry relative="1" as="geometry"/>
                </mxCell>
                <mxCell id="86" style="edgeStyle=orthogonalEdgeStyle;rounded=1;orthogonalLoop=1;jettySize=auto;html=1;exitX=0.5;exitY=0;exitDx=0;exitDy=0;entryX=0.25;entryY=1;entryDx=0;entryDy=0;startArrow=none;startFill=0;endArrow=classic;endFill=1;fontColor=#000000;strokeColor=#F8CECC;" edge="1" parent="1" source="88" target="71">
                    <mxGeometry relative="1" as="geometry"/>
                </mxCell>
                <mxCell id="87" style="edgeStyle=orthogonalEdgeStyle;rounded=1;orthogonalLoop=1;jettySize=auto;html=1;exitX=0.75;exitY=0;exitDx=0;exitDy=0;entryX=0.25;entryY=1;entryDx=0;entryDy=0;startArrow=none;startFill=0;endArrow=classic;endFill=1;fontColor=#000000;strokeColor=#F8CECC;" edge="1" parent="1" source="88" target="73">
                    <mxGeometry relative="1" as="geometry">
                        <Array as="points">
                            <mxPoint x="557" y="748"/>
                            <mxPoint x="950" y="748"/>
                        </Array>
                    </mxGeometry>
                </mxCell>
                <mxCell id="88" value="Admin&lt;br&gt;App" style="html=1;dashed=0;whitespace=wrap;strokeColor=#b85450;fillColor=#f8cecc;gradientColor=#ea6b66;" vertex="1" parent="1">
                    <mxGeometry x="437.03" y="818" width="160" height="50" as="geometry"/>
                </mxCell>
                <mxCell id="89" style="edgeStyle=orthogonalEdgeStyle;rounded=1;orthogonalLoop=1;jettySize=auto;html=1;exitX=0.25;exitY=0;exitDx=0;exitDy=0;entryX=0;entryY=1;entryDx=0;entryDy=0;startArrow=none;startFill=0;endArrow=classic;endFill=1;fontColor=#000000;strokeColor=#1BA1E2;" edge="1" parent="1" source="93" target="72">
                    <mxGeometry relative="1" as="geometry"/>
                </mxCell>
                <mxCell id="90" style="edgeStyle=orthogonalEdgeStyle;rounded=1;orthogonalLoop=1;jettySize=auto;html=1;entryX=0.25;entryY=1;entryDx=0;entryDy=0;startArrow=none;startFill=0;endArrow=classic;endFill=1;fontColor=#000000;strokeColor=#1BA1E2;" edge="1" parent="1" source="93" target="78">
                    <mxGeometry relative="1" as="geometry"/>
                </mxCell>
                <mxCell id="91" style="edgeStyle=orthogonalEdgeStyle;rounded=1;orthogonalLoop=1;jettySize=auto;html=1;entryX=1;entryY=0.5;entryDx=0;entryDy=0;startArrow=none;startFill=0;endArrow=classic;endFill=1;fontColor=#000000;strokeColor=#1BA1E2;" edge="1" parent="1" source="93" target="68">
                    <mxGeometry relative="1" as="geometry">
                        <Array as="points">
                            <mxPoint x="690" y="858"/>
                            <mxPoint x="690" y="603"/>
                        </Array>
                    </mxGeometry>
                </mxCell>
                <mxCell id="92" style="edgeStyle=orthogonalEdgeStyle;rounded=1;orthogonalLoop=1;jettySize=auto;html=1;exitX=0;exitY=0.25;exitDx=0;exitDy=0;entryX=0.75;entryY=1;entryDx=0;entryDy=0;startArrow=none;startFill=0;endArrow=classic;endFill=1;fontColor=#000000;strokeColor=#1BA1E2;" edge="1" parent="1" source="93" target="67">
                    <mxGeometry relative="1" as="geometry">
                        <Array as="points">
                            <mxPoint x="890" y="831"/>
                            <mxPoint x="890" y="768"/>
                            <mxPoint x="410" y="768"/>
                        </Array>
                    </mxGeometry>
                </mxCell>
                <mxCell id="93" value="Vendor&lt;br&gt;App" style="html=1;dashed=0;whitespace=wrap;strokeColor=#006EAF;fillColor=#1ba1e2;fontColor=#ffffff;" vertex="1" parent="1">
                    <mxGeometry x="960" y="818" width="160" height="50" as="geometry"/>
                </mxCell>
                <mxCell id="94" style="edgeStyle=orthogonalEdgeStyle;rounded=1;orthogonalLoop=1;jettySize=auto;html=1;startArrow=none;startFill=0;endArrow=classic;endFill=1;fontColor=#000000;strokeColor=#D5E8D4;" edge="1" parent="1" source="95" target="77">
                    <mxGeometry relative="1" as="geometry">
                        <Array as="points">
                            <mxPoint x="577" y="468"/>
                            <mxPoint x="1180" y="468"/>
                        </Array>
                    </mxGeometry>
                </mxCell>
                <mxCell id="95" value="" style="dashed=0;aspect=fixed;verticalLabelPosition=bottom;verticalAlign=top;align=center;shape=mxgraph.gmdl.gps;strokeColor=#737373;fillColor=#737373;shadow=0;strokeWidth=2;fontColor=#000000;" vertex="1" parent="1">
                    <mxGeometry x="567.03" y="408" width="20" height="20" as="geometry"/>
                </mxCell>
                <mxCell id="96" value="GPS Aware app or service" style="html=1;dashed=0;whitespace=wrap;strokeColor=#000000;fillColor=#FFFFFF;fontColor=#000000;" vertex="1" parent="1">
                    <mxGeometry x="40" y="40" width="160" height="50" as="geometry"/>
                </mxCell>
                <mxCell id="97" value="" style="dashed=0;aspect=fixed;verticalLabelPosition=bottom;verticalAlign=top;align=center;shape=mxgraph.gmdl.gps;strokeColor=#737373;fillColor=#737373;shadow=0;strokeWidth=2;fontColor=#000000;" vertex="1" parent="1">
                    <mxGeometry x="177.03" y="70" width="20" height="20" as="geometry"/>
                </mxCell>
                <mxCell id="98" value="Micro service&lt;br&gt;with own &lt;br&gt;data store" style="html=1;dashed=0;whitespace=wrap;strokeColor=#000000;fillColor=#FFFFFF;fontColor=#000000;" vertex="1" parent="1">
                    <mxGeometry x="40" y="110" width="160" height="50" as="geometry"/>
                </mxCell>
                <mxCell id="99" value="" style="aspect=fixed;perimeter=ellipsePerimeter;html=1;align=center;shadow=0;dashed=0;spacingTop=3;image;image=img/lib/active_directory/database.svg;strokeColor=#000000;fillColor=#FFFFFF;fontColor=#000000;" vertex="1" parent="1">
                    <mxGeometry x="170" y="140" width="27.03" height="20" as="geometry"/>
                </mxCell>
                <mxCell id="100" value="Micro service&lt;br&gt;with&lt;br&gt;event queue" style="html=1;dashed=0;whitespace=wrap;strokeColor=#000000;fillColor=#FFFFFF;fontColor=#000000;" vertex="1" parent="1">
                    <mxGeometry x="40" y="190" width="160" height="50" as="geometry"/>
                </mxCell>
                <mxCell id="101" value="" style="outlineConnect=0;fontColor=#232F3E;gradientColor=none;strokeColor=#232F3E;fillColor=#ffffff;dashed=0;verticalLabelPosition=bottom;verticalAlign=top;align=center;html=1;fontSize=12;fontStyle=0;aspect=fixed;shape=mxgraph.aws4.resourceIcon;resIcon=mxgraph.aws4.queue;" vertex="1" parent="1">
                    <mxGeometry x="167.03" y="208" width="30" height="30" as="geometry"/>
                </mxCell>
                <mxCell id="102" value="Legend" style="text;html=1;align=center;verticalAlign=middle;resizable=0;points=[];autosize=1;fontColor=#000000;" vertex="1" parent="1">
                    <mxGeometry x="90" width="60" height="20" as="geometry"/>
                </mxCell>
                <mxCell id="103" value="Stateless&lt;br&gt;Application/Service" style="html=1;dashed=0;whitespace=wrap;strokeColor=#000000;fillColor=#FFFFFF;fontColor=#000000;" vertex="1" parent="1">
                    <mxGeometry x="40" y="260" width="160" height="50" as="geometry"/>
                </mxCell>
                <mxCell id="104" style="edgeStyle=orthogonalEdgeStyle;rounded=1;orthogonalLoop=1;jettySize=auto;html=1;entryX=0.5;entryY=0;entryDx=0;entryDy=0;startArrow=none;startFill=0;endArrow=classic;endFill=1;fontColor=#D5E8D4;strokeColor=#D5E8D4;" edge="1" parent="1" source="106" target="83">
                    <mxGeometry relative="1" as="geometry"/>
                </mxCell>
                <mxCell id="105" style="edgeStyle=orthogonalEdgeStyle;rounded=1;orthogonalLoop=1;jettySize=auto;html=1;startArrow=none;startFill=0;endArrow=classic;endFill=1;strokeColor=#FFFFFF;fontColor=#000000;" edge="1" parent="1" source="106" target="124">
                    <mxGeometry relative="1" as="geometry">
                        <Array as="points">
                            <mxPoint x="510" y="238"/>
                            <mxPoint x="1700" y="238"/>
                        </Array>
                    </mxGeometry>
                </mxCell>
                <mxCell id="106" value="Customer" style="shape=actor;whiteSpace=wrap;html=1;sketch=0;strokeColor=#000000;fillColor=#D5E8D4;labelPosition=center;verticalLabelPosition=top;align=center;verticalAlign=bottom;fontColor=#D5E8D4;" vertex="1" parent="1">
                    <mxGeometry x="490" y="281" width="40" height="60" as="geometry"/>
                </mxCell>
                <mxCell id="107" style="edgeStyle=orthogonalEdgeStyle;rounded=1;orthogonalLoop=1;jettySize=auto;html=1;entryX=0.456;entryY=1;entryDx=0;entryDy=0;entryPerimeter=0;startArrow=none;startFill=0;endArrow=classic;endFill=1;fontColor=#F8CECC;strokeColor=#F8CECC;" edge="1" parent="1" source="108" target="88">
                    <mxGeometry relative="1" as="geometry"/>
                </mxCell>
                <mxCell id="108" value="Admin" style="shape=actor;whiteSpace=wrap;html=1;sketch=0;strokeColor=#000000;labelPosition=center;verticalLabelPosition=bottom;align=center;verticalAlign=top;fillColor=#F8CECC;fontColor=#F8CECC;" vertex="1" parent="1">
                    <mxGeometry x="490" y="908" width="40" height="60" as="geometry"/>
                </mxCell>
                <mxCell id="109" style="edgeStyle=orthogonalEdgeStyle;rounded=1;orthogonalLoop=1;jettySize=auto;html=1;entryX=0.5;entryY=1;entryDx=0;entryDy=0;startArrow=none;startFill=0;endArrow=classic;endFill=1;fontColor=#1BA1E2;strokeColor=#1BA1E2;" edge="1" parent="1" source="110" target="93">
                    <mxGeometry relative="1" as="geometry"/>
                </mxCell>
                <mxCell id="110" value="Vendor" style="shape=actor;whiteSpace=wrap;html=1;sketch=0;strokeColor=#000000;labelPosition=center;verticalLabelPosition=bottom;align=center;verticalAlign=top;fillColor=#1BA1E2;fontColor=#1BA1E2;" vertex="1" parent="1">
                    <mxGeometry x="1020" y="908" width="40" height="60" as="geometry"/>
                </mxCell>
                <mxCell id="111" value="Service Agent&lt;br&gt;App" style="html=1;dashed=0;whitespace=wrap;strokeColor=#A50040;fillColor=#d80073;fontColor=#ffffff;" vertex="1" parent="1">
                    <mxGeometry x="960" y="378" width="160" height="50" as="geometry"/>
                </mxCell>
                <mxCell id="112" style="edgeStyle=orthogonalEdgeStyle;rounded=1;orthogonalLoop=1;jettySize=auto;html=1;entryX=0.5;entryY=0;entryDx=0;entryDy=0;startArrow=none;startFill=0;endArrow=classic;endFill=1;fontColor=#000000;strokeColor=#D80073;" edge="1" parent="1" source="114" target="111">
                    <mxGeometry relative="1" as="geometry"/>
                </mxCell>
                <mxCell id="113" style="edgeStyle=orthogonalEdgeStyle;rounded=1;orthogonalLoop=1;jettySize=auto;html=1;startArrow=none;startFill=0;endArrow=classic;endFill=1;fontColor=#000000;strokeColor=#D80073;" edge="1" parent="1" source="114" target="124">
                    <mxGeometry relative="1" as="geometry"/>
                </mxCell>
                <mxCell id="114" value="Service&lt;br&gt;Agent" style="shape=actor;whiteSpace=wrap;html=1;sketch=0;strokeColor=#000000;labelPosition=center;verticalLabelPosition=top;align=center;verticalAlign=bottom;fillColor=#D80073;fontColor=#D80073;" vertex="1" parent="1">
                    <mxGeometry x="1020" y="281" width="40" height="60" as="geometry"/>
                </mxCell>
                <mxCell id="115" style="edgeStyle=orthogonalEdgeStyle;rounded=1;orthogonalLoop=1;jettySize=auto;html=1;entryX=0.75;entryY=0;entryDx=0;entryDy=0;startArrow=none;startFill=0;endArrow=classic;endFill=1;strokeColor=#FFFFFF;fontColor=#000000;" edge="1" parent="1" source="116" target="67">
                    <mxGeometry relative="1" as="geometry">
                        <Array as="points">
                            <mxPoint x="1540" y="538"/>
                            <mxPoint x="410" y="538"/>
                        </Array>
                    </mxGeometry>
                </mxCell>
                <mxCell id="116" value="Payment&lt;br&gt;Service" style="html=1;dashed=0;whitespace=wrap;strokeColor=#000000;fillColor=#FFFFFF;fontColor=#000000;" vertex="1" parent="1">
                    <mxGeometry x="1480" y="578" width="120" height="50" as="geometry"/>
                </mxCell>
                <mxCell id="117" value="" style="aspect=fixed;perimeter=ellipsePerimeter;html=1;align=center;shadow=0;dashed=0;spacingTop=3;image;image=img/lib/active_directory/database.svg;strokeColor=#000000;fillColor=#FFFFFF;fontColor=#000000;" vertex="1" parent="1">
                    <mxGeometry x="1570" y="608" width="27.03" height="20" as="geometry"/>
                </mxCell>
                <mxCell id="118" style="edgeStyle=orthogonalEdgeStyle;rounded=1;orthogonalLoop=1;jettySize=auto;html=1;entryX=1;entryY=0.5;entryDx=0;entryDy=0;startArrow=none;startFill=0;endArrow=classic;endFill=1;fontColor=#000000;strokeColor=#D80073;" edge="1" parent="1" source="119" target="111">
                    <mxGeometry relative="1" as="geometry">
                        <Array as="points">
                            <mxPoint x="1360" y="403"/>
                        </Array>
                    </mxGeometry>
                </mxCell>
                <mxCell id="119" value="Scheduling&lt;br&gt;Service" style="html=1;dashed=0;whitespace=wrap;strokeColor=#000000;fillColor=#FFFFFF;fontColor=#000000;" vertex="1" parent="1">
                    <mxGeometry x="1300" y="578" width="120" height="50" as="geometry"/>
                </mxCell>
                <mxCell id="120" value="" style="aspect=fixed;perimeter=ellipsePerimeter;html=1;align=center;shadow=0;dashed=0;spacingTop=3;image;image=img/lib/active_directory/database.svg;strokeColor=#000000;fillColor=#FFFFFF;fontColor=#000000;" vertex="1" parent="1">
                    <mxGeometry x="1390" y="608" width="27.03" height="20" as="geometry"/>
                </mxCell>
                <mxCell id="121" value="Point Of Sale&lt;br&gt;Service" style="html=1;dashed=0;whitespace=wrap;strokeColor=#000000;fillColor=#FFFFFF;fontColor=#000000;" vertex="1" parent="1">
                    <mxGeometry x="1660" y="578" width="120" height="50" as="geometry"/>
                </mxCell>
                <mxCell id="122" value="" style="aspect=fixed;perimeter=ellipsePerimeter;html=1;align=center;shadow=0;dashed=0;spacingTop=3;image;image=img/lib/active_directory/database.svg;strokeColor=#000000;fillColor=#FFFFFF;fontColor=#000000;" vertex="1" parent="1">
                    <mxGeometry x="1750" y="608" width="27.03" height="20" as="geometry"/>
                </mxCell>
                <mxCell id="123" style="edgeStyle=orthogonalEdgeStyle;rounded=1;orthogonalLoop=1;jettySize=auto;html=1;entryX=0.442;entryY=0.04;entryDx=0;entryDy=0;entryPerimeter=0;dashed=1;startArrow=none;startFill=0;endArrow=classic;endFill=1;strokeColor=#FFFFFF;fontColor=#000000;" edge="1" parent="1" source="124" target="121">
                    <mxGeometry relative="1" as="geometry"/>
                </mxCell>
                <mxCell id="124" value="Point Of Sale" style="verticalLabelPosition=top;aspect=fixed;html=1;verticalAlign=bottom;strokeColor=none;align=right;outlineConnect=0;shape=mxgraph.citrix.kiosk;sketch=0;fillColor=#DAE8FC;fontColor=#FFFFFF;labelPosition=left;" vertex="1" parent="1">
                    <mxGeometry x="1680" y="323" width="65" height="85" as="geometry"/>
                </mxCell>
                <mxCell id="125" style="edgeStyle=orthogonalEdgeStyle;rounded=1;orthogonalLoop=1;jettySize=auto;html=1;exitX=0.75;exitY=0;exitDx=0;exitDy=0;entryX=0.425;entryY=1.06;entryDx=0;entryDy=0;entryPerimeter=0;startArrow=none;startFill=0;endArrow=classic;endFill=1;strokeColor=#FFFFFF;fontColor=#000000;" edge="1" parent="1" source="130" target="121">
                    <mxGeometry relative="1" as="geometry"/>
                </mxCell>
                <mxCell id="126" style="edgeStyle=orthogonalEdgeStyle;rounded=1;orthogonalLoop=1;jettySize=auto;html=1;entryX=0.683;entryY=1.04;entryDx=0;entryDy=0;entryPerimeter=0;startArrow=none;startFill=0;endArrow=classic;endFill=1;strokeColor=#FFFFFF;fontColor=#000000;" edge="1" parent="1" source="130" target="121">
                    <mxGeometry relative="1" as="geometry">
                        <Array as="points">
                            <mxPoint x="1742" y="843"/>
                        </Array>
                    </mxGeometry>
                </mxCell>
                <mxCell id="127" style="edgeStyle=orthogonalEdgeStyle;rounded=1;orthogonalLoop=1;jettySize=auto;html=1;entryX=0.25;entryY=1;entryDx=0;entryDy=0;startArrow=none;startFill=0;endArrow=classic;endFill=1;strokeColor=#FFFFFF;fontColor=#000000;" edge="1" parent="1" source="130" target="116">
                    <mxGeometry relative="1" as="geometry"/>
                </mxCell>
                <mxCell id="128" style="edgeStyle=orthogonalEdgeStyle;rounded=1;orthogonalLoop=1;jettySize=auto;html=1;exitX=0.25;exitY=0;exitDx=0;exitDy=0;entryX=0.583;entryY=1.02;entryDx=0;entryDy=0;entryPerimeter=0;startArrow=none;startFill=0;endArrow=classic;endFill=1;strokeColor=#FFFFFF;fontColor=#000000;dashed=1;" edge="1" parent="1" source="130" target="119">
                    <mxGeometry relative="1" as="geometry"/>
                </mxCell>
                <mxCell id="129" style="edgeStyle=orthogonalEdgeStyle;rounded=1;orthogonalLoop=1;jettySize=auto;html=1;entryX=1;entryY=0.5;entryDx=0;entryDy=0;startArrow=none;startFill=0;endArrow=classic;endFill=1;strokeColor=#FFFFFF;fontColor=#000000;dashed=1;" edge="1" parent="1" source="130" target="77">
                    <mxGeometry relative="1" as="geometry">
                        <Array as="points">
                            <mxPoint x="1280" y="843"/>
                            <mxPoint x="1280" y="603"/>
                        </Array>
                    </mxGeometry>
                </mxCell>
                <mxCell id="130" value="System" style="html=1;dashed=0;whitespace=wrap;strokeColor=#6c8ebf;fontColor=#000000;fillColor=#FFFFFF;" vertex="1" parent="1">
                    <mxGeometry x="1450" y="818" width="160" height="50" as="geometry"/>
                </mxCell>
            </root>
        </mxGraphModel>
    </diagram>
</mxfile>